<?xml version="1.0" encoding="utf-8"?>
<!-- Generator: Adobe Illustrator 25.2.0, SVG Export Plug-In . SVG Version: 6.00 Build 0)  -->
<svg version="1.1" id="Calque_1" xmlns="http://www.w3.org/2000/svg" xmlns:xlink="http://www.w3.org/1999/xlink" x="0px" y="0px"
	 viewBox="0 0 1080 1080" style="enable-background:new 0 0 1080 1080;" xml:space="preserve">
<style type="text/css">
	.st0{fill:url(#SVGID_1_);}
	.st1{fill:url(#SVGID_2_);}
	.st2{fill:url(#SVGID_3_);}
	.st3{fill:url(#SVGID_4_);}
	.st4{fill:url(#SVGID_5_);}
	.st5{fill:url(#SVGID_6_);}
</style>
<g>
	<linearGradient id="SVGID_1_" gradientUnits="userSpaceOnUse" x1="508.7734" y1="827.0405" x2="508.7734" y2="532.8713">
		<stop  offset="0" style="stop-color:#14152E"/>
		<stop  offset="0.1227" style="stop-color:#171731"/>
		<stop  offset="0.2814" style="stop-color:#1C1B3A"/>
		<stop  offset="0.4597" style="stop-color:#252248"/>
		<stop  offset="0.6525" style="stop-color:#322C5E"/>
		<stop  offset="0.8545" style="stop-color:#45397B"/>
		<stop  offset="1" style="stop-color:#554596"/>
	</linearGradient>
	<polygon class="st0" points="518.26,524.38 537.79,524.38 551.65,504.07 518.26,504.07 503.93,504.07 479.81,504.07 465.89,524.39 
		494.89,524.37 494.89,585.67 495.92,585.67 518.26,552.95 	"/>
	<linearGradient id="SVGID_2_" gradientUnits="userSpaceOnUse" x1="577.2342" y1="827.0405" x2="577.2342" y2="532.8713">
		<stop  offset="0" style="stop-color:#14152E"/>
		<stop  offset="0.1227" style="stop-color:#171731"/>
		<stop  offset="0.2814" style="stop-color:#1C1B3A"/>
		<stop  offset="0.4597" style="stop-color:#252248"/>
		<stop  offset="0.6525" style="stop-color:#322C5E"/>
		<stop  offset="0.8545" style="stop-color:#45397B"/>
		<stop  offset="1" style="stop-color:#554596"/>
	</linearGradient>
	<polygon class="st1" points="598.7,497.04 570.1,497.04 555.76,517.95 584.36,517.95 	"/>
	<linearGradient id="SVGID_3_" gradientUnits="userSpaceOnUse" x1="545.3925" y1="827.0405" x2="545.3925" y2="532.8713">
		<stop  offset="0" style="stop-color:#14152E"/>
		<stop  offset="0.1227" style="stop-color:#171731"/>
		<stop  offset="0.2814" style="stop-color:#1C1B3A"/>
		<stop  offset="0.4597" style="stop-color:#252248"/>
		<stop  offset="0.6525" style="stop-color:#322C5E"/>
		<stop  offset="0.8545" style="stop-color:#45397B"/>
		<stop  offset="1" style="stop-color:#554596"/>
	</linearGradient>
	<polygon class="st2" points="511.75,582.16 540.3,582.16 579.04,525.7 550.45,525.7 	"/>
	<linearGradient id="SVGID_4_" gradientUnits="userSpaceOnUse" x1="354.3438" y1="827.0405" x2="354.3438" y2="532.8713">
		<stop  offset="0" style="stop-color:#14152E"/>
		<stop  offset="0.1227" style="stop-color:#171731"/>
		<stop  offset="0.2814" style="stop-color:#1C1B3A"/>
		<stop  offset="0.4597" style="stop-color:#252248"/>
		<stop  offset="0.6525" style="stop-color:#322C5E"/>
		<stop  offset="0.8545" style="stop-color:#45397B"/>
		<stop  offset="1" style="stop-color:#554596"/>
	</linearGradient>
	<path class="st3" d="M366.84,502.46c-3.59,0-7.04,0.54-10.33,1.45l6.44-9.58h-25.21l-35.65,52.43h25.46
		c1.96,20.16,19.02,36,39.68,36c16.96,0,30.25-10.99,36.76-26.04h-23.06c-3.66,4.61-7.6,7.05-13.7,7.05
		c-8.81,0-16.28-5.29-17.63-14.24h56.43c0.41-2.03,0.54-3.94,0.54-5.97C406.58,520.91,389.9,502.46,366.84,502.46z M349.89,534.33
		c1.76-8.14,8.96-12.88,17.09-12.88c8.14,0,15.33,4.75,17.09,12.88H349.89z"/>
	<linearGradient id="SVGID_5_" gradientUnits="userSpaceOnUse" x1="439.2572" y1="827.0405" x2="439.2572" y2="532.8713">
		<stop  offset="0" style="stop-color:#14152E"/>
		<stop  offset="0.1227" style="stop-color:#171731"/>
		<stop  offset="0.2814" style="stop-color:#1C1B3A"/>
		<stop  offset="0.4597" style="stop-color:#252248"/>
		<stop  offset="0.6525" style="stop-color:#322C5E"/>
		<stop  offset="0.8545" style="stop-color:#45397B"/>
		<stop  offset="1" style="stop-color:#554596"/>
	</linearGradient>
	<path class="st4" d="M454.28,535.61l-9.65-3.79c-7.21-2.81-11.73-4.15-11.73-7.94c0-3.55,3.18-5.38,8.31-5.38
		c5.86,0,10.5,1.95,15.88,5.74l9.64-14.01c-7.24-6.65-16.83-9.81-25.52-9.81c-17.35,0-29.57,11.12-29.57,24.67
		c0,11.48,7.45,18.69,16,22.11l9.9,4.15c6.72,2.69,10.75,3.91,10.75,7.7c0,3.54-2.69,5.62-9.04,5.62c-5.86,0-13.85-3.42-19.92-8.89
		l-10.62,15.6c8.55,7.7,20.03,11.36,30.05,11.36c19.79,0,31.03-11.97,31.03-25.41C469.79,546.36,464.18,539.52,454.28,535.61z"/>
	<linearGradient id="SVGID_6_" gradientUnits="userSpaceOnUse" x1="681.115" y1="827.0405" x2="681.115" y2="532.8713">
		<stop  offset="0" style="stop-color:#14152E"/>
		<stop  offset="0.1227" style="stop-color:#171731"/>
		<stop  offset="0.2814" style="stop-color:#1C1B3A"/>
		<stop  offset="0.4597" style="stop-color:#252248"/>
		<stop  offset="0.6525" style="stop-color:#322C5E"/>
		<stop  offset="0.8545" style="stop-color:#45397B"/>
		<stop  offset="1" style="stop-color:#554596"/>
	</linearGradient>
	<path class="st5" d="M751.3,504.95l-24.23,35.61v-35.23l0.26-0.38h-27.6l-31.04,45.64v-45.66h-20.63v6.36
		c-6.82-5.37-15.31-8.7-24.64-8.7c-22.1,0-40.08,17.98-40.08,40.09c0,22.11,17.98,40.09,40.08,40.09c9.33,0,17.82-3.34,24.64-8.7
		v6.14h0.49l-0.78,1.14l27.96-0.34l29.32-43.22v43.85h22.02l29.55-43.85v43.85h22.02v-76.29l0.26-0.38H751.3z M623.46,560.4
		c-10,0-18.12-8.14-18.12-18.13s8.13-18.13,18.12-18.13c10,0,18.13,8.14,18.13,18.13S633.46,560.4,623.46,560.4z"/>
</g>
</svg>
